<?xml version="1.0" encoding="UTF-8"?>
<svg width="100.1mm" height="30.86mm" version="1.1" viewBox="0 0 5000 1666" xmlns="http://www.w3.org/2000/svg">
<path d="m3742 529v464 232l0.96 10v10l0.95 10s1.92 22 1.92 22c4.6 45.97 14.37 91.4 32.6 134 29.1 68.03 86.29 133.14 150.57 169.83 65.87 37.6 159.2 61.29 235 62.17l15 1h95 294v-5h18l12-0.91s52-5.66 52-5.66c42.88-7.19 91.75-22.73 129-45.35 10.08-6.12 19.71-13.42 29-20.66 23.68-18.45 44.97-39.77 63.49-63.42l11.56-16.83c34.95-52.07 56.28-109.66 67.37-171.17 4.21-23.34 6.34-46.38 7.66-70l0.92-14v-702h-391v656c-0.05 30.93-17.63 65.34-43 82.96-16.91 11.75-44.47 19.01-65 19.04h-217c-20.34-0.03-47.79-6.6-65-17.54-25.55-16.25-44.64-51.02-45-81.46v-220-439h-391z" fill="none" stroke="#000"/>
<path d="m3054 23v1621h389v-1621h-389z" fill="none" stroke="#000"/>
<path d="m1540 529v588 112l1 16 1.83 28c5.21 53.74 16.76 107.09 40.43 156 7.05 14.57 15.46 28.37 24.17 42 12.89 20.14 28.71 38.14 45.57 55 21.48 21.48 45.77 39.56 72 54.86 25.06 14.61 57.33 27.64 85 36.48 47.95 15.33 99.61 25.07 150 25.66l15 1h91 300v-5c46.95 0 86.78-5.13 132-18.14 32.73-9.42 61.83-23.55 90-42.53 16.05-10.82 36.34-27.68 50-41.33l10.04-11c23.56-24.76 45.7-57.39 60.99-88 19.39-38.8 35.57-98.86 41.25-142l5.68-47v-10l1.04-12v-131-154-181-232h-390.86c0.91 7.31 0.27 11.58 0 18.76l0.73 11.24v9 37 8 11 61 13 49 34 61 25 12l-0.56 11s0.69 89 0.69 89v193c-0.04 27.93-10.05 64.71-30.17 84.83-19.11 19.12-54.12 30.13-80.83 30.17h-216c-18.71-0.03-43.89-5.87-60-15.45-25.23-15.01-40.37-37.41-47.37-65.55-1.72-6.9-3.54-15.92-3.63-23v-218-436h-389z" fill="none" stroke="#000"/>
<path d="m42 23v1621h389v-654c0.03-22.2 9.41-48.86 23.46-66 17.43-21.25 49.79-37.96 77.54-38h238c30.17 0.05 66.41 21.25 82.91 46 10.65 15.97 17.86 41.81 18.09 61v217 434h388v-543-129-59l-0.96-13c-1.81-41.55-9.22-85.47-22.39-125-8-23.98-20.59-52.87-34.34-74-7.68-11.79-16.9-23.32-26.04-34-59.95-70.04-137.64-106.95-226.27-126.42-26.27-5.77-53.16-9.45-80-10.62l-11-0.96h-198-95s-62 6.84-62 6.84-38 4.47-38 4.47l-34 10.69v-528h-389z" fill="none" stroke="#000"/>
<path transform="scale(.99986)" d="m42.678 832.96v-807.94h385.57v263.43c0 208.8 0.76299 263.42 3.6791 263.39 2.0235-0.0177 10.302-2.0897 18.396-4.6048 8.0941-2.5151 35.908-7.1302 61.81-10.256 41.134-4.9636 67.019-5.6772 204.56-5.6394 169.88 0.0468 193 1.5201 250 15.929 90.441 22.863 159.69 64.503 211.45 127.15 35.068 42.444 58.462 96.609 71.792 166.22 6.3544 33.186 6.4305 37.413 7.5078 416.89l1.0883 383.37h-385.72l-0.79608-337.75c-0.77783-329.99-0.93127-338.08-6.6827-352.23-8.6589-21.309-30.673-43.919-53.886-55.346l-19.577-9.6367h-282.81l-19.377 9.5401c-24.24 11.934-43.563 32.152-52.912 55.362l-7.0535 17.511-0.79634 336.27-0.79634 336.27h-385.45z" fill="#60a941" stroke-width="2.9433"/>
<path transform="scale(.99986)" d="m1917.6 1638.9c-68.774-8.7796-149.44-34.457-194.26-61.832-94.212-57.55-149.87-141.62-172.84-261.09-6.1734-32.109-6.3016-39.233-7.3559-408.69l-1.0731-376.01h385.83v332.28c0 326.46 0.1056 332.63 6.0222 351.78 8.4355 27.311 25.423 47.404 51.226 60.592l20.156 10.302h141.58c140.62 0 141.69-0.046 158.2-6.7206 32.868-13.29 53.918-40.779 61.388-80.166 1.8367-9.6851 2.9322-137.37 2.9322-341.77v-326.31h385.57v357.46c0 383.35-0.181 388.74-15.21 453.42-33.648 144.8-129.17 248.53-258.7 280.96-62.443 15.631-106.12 17.839-343.07 17.345-116.36-0.2425-215.53-0.9482-220.38-1.5682z" fill="#60a941" stroke-width="2.9433"/>
<path transform="scale(.99986)" d="m3055.2 832.96v-807.94h385.57v1615.9h-385.57z" fill="#60a941" stroke-width="2.9433"/>
<path transform="scale(.99986)" d="m4123.6 1638.9c-78.335-8.2485-171.26-41.55-222.33-79.672-69.205-51.663-115.82-119.83-138.25-202.15-17.516-64.296-17.156-55.322-18.317-457.13l-1.0645-368.65h388.7l0.784 340.69 0.7839 340.69 8.2954 16.893c11.128 22.661 30.455 41.434 51.34 49.868 16.689 6.74 18.505 6.8316 152.12 7.671 128.54 0.8077 136.19 0.5561 154.77-5.088 32.552-9.8873 56.958-36.187 66.362-71.511 3.4201-12.848 4.1305-72.17 4.1594-347.35l0.035-331.86h385.78l-0.9769 380.42-0.9769 380.42-6.6331 29.121c-21.613 94.889-53.932 158.64-107.7 212.43-64.141 64.177-120.84 89.041-231.24 101.41-46.87 5.2499-70.589 5.7293-263.43 5.3241-116.56-0.2449-216.55-0.9334-222.22-1.53z" fill="#60a941" stroke-width="2.9433"/>
</svg>
