<?xml version="1.0" encoding="UTF-8"?>
<svg width="100.1mm" height="50.86mm" version="1.1" viewBox="0 0 3840 2160" xmlns="http://www.w3.org/2000/svg">
<path d="m3255 559s16.4 45 16.4 45l28.18 74 94.84 249 32 84 9.18 24 4.29 12.58-4.17 11.42-10.44 24s-38 88-38 88l-104.7 242-33 76s-14.58 36-14.58 36 58 7.16 58 7.16l15 2.05c33.42 3.12 66.96 6.57 100 12.79l11.15-27s17.43-41 17.43-41l53.27-126 23.75-56 10.4-26 8.53 22.42 17.28 44.58 56.77 148s23 60 23 60l6.1 16 4.02 8.1s13.3 3.29 13.3 3.29l35 6.02 84 14.01s48 6.58 48 6.58l-15.95-45s-33.63-90-33.63-90l-62.84-169-40.27-108-34.73-93-10-27-4.45-14 4.27-12 10.2-25s35.39-86 35.39-86l101.43-247 32-78 12.38-30 6.2-17h-168l-7.5 1.02-7.22 14.98s-19.28 47-19.28 47l-58.6 143-16.82 41-9.58 25-11.42-29-20-52-48.9-127s-18.48-48-18.48-48l-6.85-15.01s-7.35-0.99-7.35-0.99h-165z" fill="none" stroke="#000"/>
<path d="m2960 559v946l35 2 26 1.91 59 4.26s38 3.83 38 3.83v-958h-158z" fill="none" stroke="#000"/>
<path d="m2392 559v913l35 1s13 0.98 13 0.98h21l13 1.02h14l10 0.96h13l23 1.04 15 1s28 1 28 1l18 1 20 1 14 1.18h8l15 0.82 13 1 21 1 14 1 29 2h9l88 6v-162l-38-2-10-0.91-25-1.18-30-1.91-29-2-20-1-21-1-13-1-22-1.04h-12l-12-0.96-41-1v-759h-161z" fill="none" stroke="#000"/>
<path d="m1844 559v902h158v-369h220v-163h-220v-207h291v-163h-449z" fill="none" stroke="#000"/>
<path d="m1248 559v163h166v750h21l15-1h58l17-1h50v-748h167v-163h-494z" fill="none" stroke="#000"/>
<path d="m701 559v961l25-1.91 37-2.94h7l31-3.06 242-19.18 56-4.74 23-1.75 16-1.33 6.98-1.69 1.02-7.4v-149l-32 1-14 1-26 1-13 1-46 3h-9l-71 5.09-44 3-29 1.91v-241.04h17l13-0.83h10l22-1.13h56l14-1h82v-163h-60l-17 1h-37l-17 1h-43l-17 1h-23v-218h284v-163h-445z" fill="none" stroke="#000"/>
<path d="m24 559v1041l62-8.73 102-13.27v-563l5.42 15s18.91 56 18.91 56l40.67 121 117 348 135-15.28 28-3.99s11.4-2.71 11.4-2.71l1.6-8.02v-966h-162v586s-21.34-60-21.34-60l-37.35-106-66-187s-33.31-94-33.31-94l-37.67-107-7.67-22-4.36-9.01s-7.3-0.99-7.3-0.99h-145z" fill="#f00" stroke="#000"/>
<path transform="scale(.75)" d="m937.88 1386.3v-638.53h588.19v211.61h-380.17v298.12l51.108-1.9644c28.11-1.0805 92.668-2.8933 143.46-4.0286l92.354-2.0641v215.65l-97.734 0.014c-53.753 0.01-118.31 1.064-143.46 2.3468l-45.728 2.3321v325.84l22.416-2.0575c70.207-6.4438 294.03-20.032 329.97-20.032h27.901l-0.9525 101.32-0.9525 101.32-25.106 2.6398c-25.792 2.712-387.19 31.833-477.01 38.437-27.616 2.0304-57.878 4.5686-67.248 5.6403l-17.036 1.9487z" fill="#f00" stroke-width="3.5866"/>
<path transform="scale(.75)" d="m1888.3 1459.7v-500.32h-222.37v-211.61h652.75v211.61h-222.37v995.94l-56.488 2.3429c-31.068 1.2885-77.873 2.3482-104.01 2.3548l-47.522 0.012z" fill="#f00" stroke-width="3.5866"/>
<path transform="scale(.75)" d="m2462.2 1346.7v-598.95h591.78v211.61h-387.35v283.34h294.1v211.61h-294.1v491.36h-204.43z" fill="#f00" stroke-width="3.5866"/>
<path transform="scale(.75)" d="m3724.6 1986.5c-27.586-3.6286-477.17-26.181-526.33-26.402l-8.0698-0.036v-1212.3h211.61v1011.4l13.45 0.025c18.387 0.036 202.34 9.8779 266.3 14.247 28.603 1.954 58.864 3.5766 67.248 3.6059l15.243 0.054v211.61l-15.243-0.5374c-8.3835-0.2955-19.278-1.0681-24.209-1.7167z" fill="#f00" stroke-width="3.5866"/>
<path transform="scale(.75)" d="m4147.5 2019.5c-0.8224-0.8225-41.844-4.1925-91.158-7.489-49.315-3.2965-93.294-6.6892-97.733-7.5393l-8.0697-1.5457v-1255.2h204.43v636.61c0 350.14-1.345 636.61-2.9888 636.61s-3.6617-0.6729-4.4842-1.4954z" fill="#f00" stroke-width="3.5866"/>
<path transform="scale(.75)" d="m5057 2126.1c-60.637-8.1602-200.96-34.213-203.12-37.712-1.502-2.4302-36.132-91.612-76.956-198.18s-75.3-194.99-76.612-196.49c-1.3128-1.4976-36.825 78.681-78.916 178.18-42.091 99.494-77.502 182.37-78.692 184.16-1.2671 1.9116-20.733 0.6949-46.995-2.9373-24.658-3.4103-68.234-8.8525-96.837-12.094-28.603-3.2413-58.688-6.803-66.855-7.9148l-14.85-2.0214 8.2573-20.274c4.5415-11.151 65.695-153.03 135.9-315.28 70.201-162.25 127.64-296.48 127.64-298.29 0-1.81-53.901-145.04-119.78-318.3-65.879-173.25-120.87-318.66-122.2-323.13l-2.421-8.1212 224.63 1.8962 68.794 177.53c79.097 204.12 71.49 185.21 73.552 182.91 0.8875-0.9863 31.221-74.421 67.408-163.19 36.187-88.767 69.486-169.87 73.998-180.22l8.2031-18.829h113.17c69.871 0 113.17 1.3167 113.17 3.4412 0 1.8926-59.716 148.87-132.7 326.62-72.986 177.75-132.7 325.32-132.7 327.94 0 2.6172 34.826 98.135 77.39 212.26 100.19 268.63 183.01 492.29 186.07 502.5 2.5861 8.6132-0.8295 9.2769-28.546 5.5471z" fill="#f00" stroke-width="3.5866"/>
</svg>
